<svg width="246" height="130" viewBox="0 0 246 130" fill="none" xmlns="http://www.w3.org/2000/svg">
<path d="M246 3L191 130H0L2.05176 125.26L86 121.5L5.24707 117.883L7.35156 113.022L86 109.5L10.3447 106.111L12.6504 100.785L86 97.5L15.4424 94.3398L17.0664 90.5879L86 87.5L19.6904 84.5293L21.4824 80.3896L86 77.5L23.9385 74.7197L25.8984 70.1924L86 67.5L28.1865 64.9092L30.3145 59.9941L86 57.5L32.4346 55.0996L34.7305 49.7959L86 47.5L36.6826 45.29L39.1475 39.5986L86 37.5L40.9307 35.4805L43.5635 29.4004L86 27.5L45.1787 25.6709L47.9805 19.2031L86 17.5L49.4277 15.8613L52.3975 9.00488L86 7.5L53.6768 6.05176L55 3H246Z" fill="#FFC014"/>
<path d="M100.819 26.7273H118.392L141.926 84.169H142.855L166.389 26.7273H183.962V106H170.183V51.5387H169.447L147.539 105.768H137.243L115.334 51.4226H114.599V106H100.819V26.7273Z" fill="black"/>
</svg>
